<?xml version="1.0" standalone="no"?>
<!DOCTYPE svg PUBLIC "-//W3C//DTD SVG 1.1//EN" "http://www.w3.org/Graphics/SVG/1.1/DTD/svg11.dtd" >
<svg xmlns="http://www.w3.org/2000/svg">
<metadata></metadata>
<defs>
<font id="lunchtime_doubly_soregular" horiz-adv-x="1152" >
<font-face units-per-em="2048" ascent="1638" descent="-410" />
<missing-glyph horiz-adv-x="500" />
<glyph unicode="&#x2e;&#x2e;&#x2e;" />
<glyph unicode="TM" />
<glyph />
<glyph />
<glyph unicode="&#xd;" />
<glyph unicode=" " />
<glyph unicode="!" d="M256 128h256v-256h-256v256zM384 256v896h256v-640h-128v-256h-128z" />
<glyph unicode="&#x22;" d="M128 896v128h128v128h-128v256h256v-384h-128v-128h-128zM512 896v128h128v128h-128v256h256v-384h-128v-128h-128z" />
<glyph unicode="#" d="M0 256v128h128v640h-128v128h128v256h256v-256h128v256h256v-256h128v-128h-128v-640h128v-128h-128v-256h-256v256h-128v-256h-256v256h-128zM384 384h128v640h-128v-640z" />
<glyph unicode="$" d="M128 256v128h256v-128h256v384h-384v128h-128v384h128v128h128v256h256v-256h128v-128h128v-128h-256v128h-256v-384h384v-128h128v-384h-128v-128h-128v-256h-256v256h-128v128h-128z" />
<glyph unicode="%" d="M0 128v128h128v128h128v128h128v128h128v128h128v128h128v128h128v-128h-128v-128h-128v-128h-128v-128h-128v-128h-128v-128h-128v-128h-128zM0 768v256h256v-256h-256zM640 128v256h256v-256h-256z" />
<glyph unicode="&#x26;" d="M0 0v256h128v128h128v128h128v128l-128 13v115l-128 13v499h128v128h384v-128h128v-512h-128v-128h-128v-128h128v-128h128v-128h128v256h141v-128l-13 -128h-128v-128h128l13 -256l-13 128h-128v128h-128l-13 -128h-115l-13 -128h-499v128h-128zM256 0h384v128h128v128 h-128v128h-128v128h-128v-128h-128v-384zM384 768h256v512h-256v-512z" />
<glyph unicode="'" d="M256 768v128h128v128h-128v256h256v-384h-128v-128h-128z" />
<glyph unicode="(" d="M512 384v512h128v256h128v128h128v128h128v-128h-128v-128h-128v-256h-128v-512h128v-256h128v-128h128v-128h-128v128h-128v128h-128v256h-128z" />
<glyph unicode=")" d="M0 0h128v128h128v256h128v512h-128v256h-128v128h-128v128h128v-128h128v-128h128v-256h128v-512h-128v-256h-128v-128h-128v-128h-128v128z" />
<glyph unicode="*" d="M0 0v256h128v128h128v128h128v128h-128v128h-128v128h-128v256h128v-128h128v-128h128v384h256v-384h128v128h128v128h128v-256h-128v-128h-128v-128h-128v-128h128v-128h128v-128h128v-256h-128v128h-128v128h-128v-384h-256v384h-128v-128h-128v-128h-128z" />
<glyph unicode="+" d="M0 512v128h512v512h128v-512h512v-128h-512v-512h-128v512h-512z" />
<glyph unicode="," d="M256 0h128v128h-128v256h256v-384h-128v-128h-128v128z" />
<glyph unicode="-" d="M0 512v128h1024v-128h-1024z" />
<glyph unicode="." d="M0 0v256h256v-256h-256z" />
<glyph unicode="/" d="M0 128v128h128v128h128v128h128v128h128v128h128v128h128v128h128v128h128v128h128v-128h-128v-128h-128v-128h-128v-128h-128v-128h-128v-128h-128v-128h-128v-128h-128v-128h-128z" />
<glyph unicode="0" d="M128 128v1408h128v128h512v-128h128v-1408h-128v-128h-512v128h-128zM384 128h256v768h-128v-128h-128v-640zM384 896h128v128h128v512h-256v-640z" />
<glyph unicode="1" d="M256 0v128h128v1280h-128v128h128v128h256v-1536h128v-128h-512z" />
<glyph unicode="2" d="M128 0v384h128v128h128v128h128v128h128v768h-256v-384h-256v384h128v128h512v-128h128v-768h-128v-128h-256v-128h-128v-384h256v128h256v-256h-768z" />
<glyph unicode="3" d="M128 128v384h256v-384h256v640h-256v128h256v640h-256v-384h-256v384h128v128h512v-128h128v-512h-128v-256h128v-640h-128v-128h-512v128h-128z" />
<glyph unicode="4" d="M0 256v384h128v256h128v256h128v256h128v256h256v-1280h128v-128h-128v-256h-256v1152h-128v-256h-128v-512h128v-128h-384z" />
<glyph unicode="5" d="M128 128v256h256v-256h256v768h-256v-128h-256v896h768v-128h-640v-128h128v-384h384v-128h128v-768h-128v-128h-512v128h-128z" />
<glyph unicode="6" d="M128 128v1408h128v128h512v-128h128v-256h-256v256h-256v-1408h256v768h-128v128h256v-128h128v-768h-128v-128h-512v128h-128z" />
<glyph unicode="7" d="M128 1280v384h768v-384h-128v-384h-128v-896h-256v768h128v384h128v384h-256v-256h-256z" />
<glyph unicode="8" d="M128 128v640h128v256h-128v512h128v128h512v-128l128 -13v-499h-128v-256h128v-640h-128v-128h-512v128h-128zM384 128h256v640h-128v128h128v640h-256v-1408z" />
<glyph unicode="9" d="M128 128v256h256v-256h256v1408h-256v-768h128v-128h-256v128h-128v768h128v128h512v-128h128v-1408h-128v-128h-512v128h-128z" />
<glyph unicode=":" d="M384 128v256h256v-256h-256zM384 896v256h256v-256h-256z" />
<glyph unicode=";" d="M384 0h128v128h-128v256h256v-384h-128v-128h-128v128zM384 896v256h256v-256h-256z" />
<glyph unicode="&#x3c;" d="M0 512v128h128l13 128h115v128h128v128h128v-256h512v-384h-512v-256h-128v128h-128v128h-128v128h-128z" />
<glyph unicode="=" d="M0 384v128h1024v-128h-1024zM0 768v128h1024v-128h-1024z" />
<glyph unicode="&#x3e;" d="M0 384v384h512v256h128v-128h128v-128h128v-128h128v-128h-128v-128h-128v-128h-128v-128h-128v256h-512z" />
<glyph unicode="?" d="M0 768v256h128l13 128h627v-128h128v-384h-128v-128h-256v-256h-256v256h128v128h256v384h-384v-256h-256zM256 128h256v-256h-256v256z" />
<glyph unicode="@" d="M0 128v896h128v128h128l13 128h627v-128h128v-128h128v-768h-128v-128h-256v128h-128v-128h-256v128h-128v384h128v128h128v-512h128v640h-384v128h-128v-896h128v-128h640v-128h-640v128h-128v128h-128zM256 1024h512v-128l128 -13v-627h128v768h-128v128h-640v-128z " />
<glyph unicode="A" d="M0 0v384h128v256h128v256h128v256h128v256h128v256h256v-1664h-256v256h-256v128h256v768h-128v-256h-128v-256h-128v-256h-128v-384h-128z" />
<glyph unicode="B" d="M128 0v1664h640v-128h128v-640h-128v-128h128v-640h-128v-128h-640zM256 1408h128v-1280h256v640h-128v128h128v640h-384v-128z" />
<glyph unicode="C" d="M128 128v1408h128v128h512v-128h128v-384h-256v384h-256v-1408h256v512h256v-512h-128v-128h-512v128h-128z" />
<glyph unicode="D" d="M0 0v128h128v1408h-128v128h768v-128h128v-1408h-128v-128h-768zM256 1408h128v-1280h256v1408h-384v-128z" />
<glyph unicode="E" d="M128 0v1664h768v-128h-640v-128h128v-1280h512v-128h-768zM512 768v128h256v-128h-256z" />
<glyph unicode="F" d="M128 0v1664h768v-128h-640v-128h128v-1408h-256zM512 768v128h256v-128h-256z" />
<glyph unicode="G" d="M128 128v1408h128v128h512v-128h128v-384h-256v384h-256v-1408h256v640h-128v128h384v-896h-640v128h-128z" />
<glyph unicode="H" d="M128 0v1664h256v-896h256v896h256v-1664h-256v640h-384v-128l128 -13v-499h-256z" />
<glyph unicode="I" d="M256 0v128h128v1408h-128v128h512v-128h-128v-1408h128v-128h-512z" />
<glyph unicode="J" d="M128 128v256h256v-256h256v1536h256v-1536h-128v-128h-512v128h-128z" />
<glyph unicode="K" d="M128 0v1664h256v-768h128v256h128v256h128v256h128v-256h-128v-256h-128v-256h-128v-128h128v-256h128v-256h128v-256h-256v256h-128v256h-128v-512h-256z" />
<glyph unicode="L" d="M128 0v1664h256v-1536h512v-128h-768z" />
<glyph unicode="M" d="M0 0v1664h128v-256h128v-256h128v-256h128v256h128v256h128v256h256v-1664h-256v896h-128v-256h-128v-256h-128v256h-128v256h-128v-896h-128z" />
<glyph unicode="N" d="M128 0v1664h128v-256h128v-256h128v-256h128v768h256v-1664h-256v512h-128v256h-128v256h-128v-1024h-128z" />
<glyph unicode="O" d="M128 128v1408h128v128h512v-128h128v-1408h-128v-128h-512v128h-128zM384 128h256v1408h-256v-1408z" />
<glyph unicode="P" d="M128 0v1664h640v-128h128v-896h-128v-128h-256v128h128v896h-384v-128h128v-1408h-256z" />
<glyph unicode="Q" d="M128 128v1408h128v128h512v-128h128v-1408h-128v-256h128v-256h-128v128h-128v128h-128v128h-256v128h-128zM384 128h256v1408h-256v-1408z" />
<glyph unicode="R" d="M128 0v1664h640v-128h128v-896h-128v-128h128v-768h128v-128h-128v128h-128v128h-128v640h-128v128h128v896h-384v-128h128v-1408h-256z" />
<glyph unicode="S" d="M128 128v256h256v-256h256v512h-128v128h-256v128h-128v640h128v128h512v-128h128v-256h-256v256h-256v-512h128v-128h256v-128h128v-640h-128v-128h-512v128h-128z" />
<glyph unicode="T" d="M0 1536v128h1024v-128h-512v-128h128v-1408h-256v1536h-384z" />
<glyph unicode="U" d="M128 128v1536h256v-1536h256v1536h256v-1536h-128v-128h-512v128h-128z" />
<glyph unicode="V" d="M0 0v1664h256v-1152h128v256h128v256h128v256h128v384h128v-384h-128v-256h-128v-256h-128v-256h-128v-256h-128v-256h-256z" />
<glyph unicode="W" d="M0 768v896h256v-1024h128v1024h128v-1024h128v1024h256v-896h-128v-640h-128v-128h-128v384h-128v-256h-128v-128h-128v768h-128z" />
<glyph unicode="X" d="M128 0v256h128v256h128v512h-128v384h-128v256h256v-256h128v-256h128v256h128v256h128v-256h-128v-256h-128v-512h128v-384h128v-256h-256v256h-128v256h-128v-256h-128v-256h-128z" />
<glyph unicode="Y" d="M128 1152v512h256v-384h128v-384h128v384h128v384h128v-512h-128v-384h-128v-768h-256v768h-128v384h-128z" />
<glyph unicode="Z" d="M128 0v256h128v384h128v384h128v384h128v128h-512v128h768v-256h-128v-384h-128v-384h-128v-384h-128v-128h512v-128h-768z" />
<glyph unicode="[" d="M256 0v1664h512v-128h-256v-1408h256v-128h-512z" />
<glyph unicode="\" d="M0 1152v128h128v-128h128v-128h128v-128h128v-128h128v-128h128v-128h128v-128h128v-128h128v-128h-128v128h-128v128h-128v128h-128v128h-128v128h-128v128h-128v128h-128v128h-128z" />
<glyph unicode="]" d="M256 0v128h256v1408h-256v128h512v-1664h-512z" />
<glyph unicode="^" d="M0 512v128h128v128h128v128h128v128h128v-128h128v-128h128v-128h128v-128h-256v-512h-384v512h-256z" />
<glyph unicode="_" d="M0 0v128h1152v-128h-1152z" />
<glyph unicode="`" d="M0 384v128h256v512h384v-512h256v-128h-128v-128h-128v-128h-128v-128h-128v128h-128v128h-128v128h-128z" />
<glyph unicode="a" d="M128 128v384h128v128h256v-128h-128v-384h256v768h-384v128h512v-128h128v-768h128v-128h-256v128h-128v-128h-384v128h-128z" />
<glyph unicode="b" d="M128 0v1536h128v128h128v-1536h256v768h-128v128h256v-128h128v-768h-128v-128h-384v128h-128v-128h-128z" />
<glyph unicode="c" d="M128 128v768h128v128h512v-128h128v-128h-256v128h-256v-768h256v256h256v-256h-128v-128h-512v128h-128z" />
<glyph unicode="d" d="M128 128v768h128v128h256v-128h-128v-768h256v1408h128v128h128v-1536h128v-128h-256v128h-128v-128h-384v128h-128z" />
<glyph unicode="e" d="M128 128v768h128v128h512v-128h128v-384h-512v-384h256v128h256v-128h-128v-128h-512v128h-128zM384 640h256v256h-256v-256z" />
<glyph unicode="f" d="M128 896v128h256v512h128v128h512v-256h-256v128h-128v-512h256v-128h-384v-128h128v-768h-256v896h-256z" />
<glyph unicode="g" d="M128 0h256v-128h256v1024h-256v-640h128v-128h-256v128h-128v640h128v128h384v-128h128v128h128v-1152h-128v-128h-512v128h-128v128z" />
<glyph unicode="h" d="M128 0v1536h128v128h128v-1664h-256zM512 896v128h256v-128h128v-896h-256v896h-128z" />
<glyph unicode="i" d="M384 0v896h128v128h128v-1024h-256zM384 1152v256h256v-256h-256z" />
<glyph unicode="j" d="M128 -128h256v1024h128v128h128v-1152h-128v-128h-384v128zM384 1152v256h256v-256h-256z" />
<glyph unicode="k" d="M128 0v1536h128v128h128v-1024h128v128h128v128h128v128h128v-128h-128v-128h-128v-384h128v-256h128v-128h-256v128h-128v256h-128v-384h-256z" />
<glyph unicode="l" d="M384 0v1536h128v128h128v-1664h-256z" />
<glyph unicode="m" d="M0 0v1024h896v-128h128v-896h-256v896h-128v-896h-256v896h-128v-896h-256z" />
<glyph unicode="n" d="M128 0v1024h640v-128h128v-896h-256v896h-256v-896h-256z" />
<glyph unicode="o" d="M128 128v768h128v128h512v-128h128v-768h-128v-128h-512v128h-128zM384 128h256v768h-256v-768z" />
<glyph unicode="p" d="M128 -256v1280h640v-128h128v-640h-128v-128h-256v128h128v640h-256v-1152h-256z" />
<glyph unicode="q" d="M128 256v640h128v128h640v-1280h-256v1152h-256v-640h128v-128h-256v128h-128z" />
<glyph unicode="r" d="M128 0v1024h256v-128h128v128h256v-128h128v-256h-256v256h-128v-128h-128v-768h-256z" />
<glyph unicode="s" d="M128 128v128h256v-128h256v384h-384v128h-128v256h128v128h512v-128h128v-128h-256v128h-256v-256h384v-128h128v-384h-128v-128h-512v128h-128z" />
<glyph unicode="t" d="M128 896v128h256v384h256v-384h256v-128h-384v-128h128v-768h-256v896h-256z" />
<glyph unicode="u" d="M128 128v896h256v-896h256v896h256v-896h128v-128h-256v128h-128v-128h-384v128h-128z" />
<glyph unicode="v" d="M128 0v1024h256v-768h128v256h128v256h128v256h128v-256h-128v-256h-128v-256h-128v-256h-384z" />
<glyph unicode="w" d="M0 384v640h256v-640h128v640h256v-640h128v640h256v-256h-128v-384h-128v-384h-256v256h-128v-256h-256v384h-128z" />
<glyph unicode="x" d="M128 0v256h128v128h128v256h-128v128h-128v256h256v-256h256v256h256v-256h-128v-128h-128v-256h128v-128h128v-256h-256v256h-256v-256h-256z" />
<glyph unicode="y" d="M128 0h128v256h-128v768h256v-512h128v256h128v256h256v-128h-128v-256h-128v-256h-128v-256h-128v-256h-128v-128h-128v256z" />
<glyph unicode="z" d="M128 0v128h128v256h128v256h128v256h-384v128h768v-128h-128v-256h-128v-256h-128v-256h384v-128h-768z" />
<glyph unicode="{" d="M128 768v128h128v640h128v128h384v-128h-256v-640h-128v-128h128v-640h256v-128h-384v128h-128v640h-128z" />
<glyph unicode="|" d="M384 0v768h256v-768h-256zM384 896v768h256v-768h-256z" />
<glyph unicode="}" d="M256 0v128h256v640h128v128h-128v640h-256v128h384v-128h128v-640h128v-128h-128v-640h-128v-128h-384z" />
<glyph unicode="~" />
<glyph unicode="&#xa0;" />
<glyph unicode="&#xa1;" />
<glyph unicode="&#xa2;" />
<glyph unicode="&#xa3;" />
<glyph unicode="&#xa4;" />
<glyph unicode="&#xa5;" />
<glyph unicode="&#xa6;" />
<glyph unicode="&#xa7;" />
<glyph unicode="&#xa8;" />
<glyph unicode="&#xa9;" />
<glyph unicode="&#xaa;" />
<glyph unicode="&#xab;" />
<glyph unicode="&#xac;" />
<glyph unicode="&#xad;" d="M0 512v128h1024v-128h-1024z" />
<glyph unicode="&#xae;" />
<glyph unicode="&#xaf;" />
<glyph unicode="&#xb0;" />
<glyph unicode="&#xb1;" />
<glyph unicode="&#xb2;" />
<glyph unicode="&#xb3;" />
<glyph unicode="&#xb4;" />
<glyph unicode="&#xb6;" />
<glyph unicode="&#xb7;" />
<glyph unicode="&#xb8;" />
<glyph unicode="&#xb9;" />
<glyph unicode="&#xba;" />
<glyph unicode="&#xbb;" />
<glyph unicode="&#xbc;" />
<glyph unicode="&#xbd;" />
<glyph unicode="&#xbe;" />
<glyph unicode="&#xbf;" />
<glyph unicode="&#xc0;" />
<glyph unicode="&#xc1;" />
<glyph unicode="&#xc2;" />
<glyph unicode="&#xc3;" />
<glyph unicode="&#xc4;" />
<glyph unicode="&#xc5;" />
<glyph unicode="&#xc6;" />
<glyph unicode="&#xc7;" />
<glyph unicode="&#xc8;" />
<glyph unicode="&#xc9;" />
<glyph unicode="&#xca;" />
<glyph unicode="&#xcb;" />
<glyph unicode="&#xcc;" />
<glyph unicode="&#xcd;" />
<glyph unicode="&#xce;" />
<glyph unicode="&#xcf;" />
<glyph unicode="&#xd0;" />
<glyph unicode="&#xd1;" />
<glyph unicode="&#xd2;" />
<glyph unicode="&#xd3;" />
<glyph unicode="&#xd4;" />
<glyph unicode="&#xd5;" />
<glyph unicode="&#xd6;" />
<glyph unicode="&#xd7;" />
<glyph unicode="&#xd8;" />
<glyph unicode="&#xd9;" />
<glyph unicode="&#xda;" />
<glyph unicode="&#xdb;" />
<glyph unicode="&#xdc;" />
<glyph unicode="&#xdd;" />
<glyph unicode="&#xde;" />
<glyph unicode="&#xdf;" />
<glyph unicode="&#xe0;" />
<glyph unicode="&#xe1;" />
<glyph unicode="&#xe2;" />
<glyph unicode="&#xe3;" />
<glyph unicode="&#xe4;" />
<glyph unicode="&#xe5;" />
<glyph unicode="&#xe6;" />
<glyph unicode="&#xe7;" />
<glyph unicode="&#xe8;" />
<glyph unicode="&#xe9;" />
<glyph unicode="&#xea;" />
<glyph unicode="&#xeb;" />
<glyph unicode="&#xec;" />
<glyph unicode="&#xed;" />
<glyph unicode="&#xee;" />
<glyph unicode="&#xef;" />
<glyph unicode="&#xf0;" />
<glyph unicode="&#xf1;" />
<glyph unicode="&#xf2;" />
<glyph unicode="&#xf3;" />
<glyph unicode="&#xf4;" />
<glyph unicode="&#xf5;" />
<glyph unicode="&#xf6;" />
<glyph unicode="&#xf7;" />
<glyph unicode="&#xf8;" />
<glyph unicode="&#xf9;" />
<glyph unicode="&#xfa;" />
<glyph unicode="&#xfb;" />
<glyph unicode="&#xfc;" />
<glyph unicode="&#xfd;" />
<glyph unicode="&#xfe;" />
<glyph unicode="&#xff;" />
<glyph unicode="&#x152;" />
<glyph unicode="&#x153;" />
<glyph unicode="&#x178;" />
<glyph unicode="&#x2c6;" />
<glyph unicode="&#x2dc;" />
<glyph unicode="&#x2000;" horiz-adv-x="832" />
<glyph unicode="&#x2001;" horiz-adv-x="1664" />
<glyph unicode="&#x2002;" horiz-adv-x="832" />
<glyph unicode="&#x2003;" horiz-adv-x="1664" />
<glyph unicode="&#x2004;" horiz-adv-x="554" />
<glyph unicode="&#x2005;" horiz-adv-x="416" />
<glyph unicode="&#x2006;" horiz-adv-x="277" />
<glyph unicode="&#x2007;" horiz-adv-x="277" />
<glyph unicode="&#x2008;" horiz-adv-x="208" />
<glyph unicode="&#x2009;" horiz-adv-x="332" />
<glyph unicode="&#x200a;" horiz-adv-x="92" />
<glyph unicode="&#x2010;" d="M0 512v128h1024v-128h-1024z" />
<glyph unicode="&#x2011;" d="M0 512v128h1024v-128h-1024z" />
<glyph unicode="&#x2012;" d="M0 512v128h1024v-128h-1024z" />
<glyph unicode="&#x2013;" />
<glyph unicode="&#x2014;" />
<glyph unicode="&#x2018;" d="M512 768v384h128v128h128v-128h-128v-128h128v-256h-256z" />
<glyph unicode="&#x2019;" d="M256 768v128h128v128h-128v256h256v-384h-128v-128h-128z" />
<glyph unicode="&#x201a;" />
<glyph unicode="&#x201c;" d="M128 896v384h128v128h128v-128h-128v-128h128v-256h-256zM512 896v384h128v128h128v-128h-128v-128h128v-256h-256z" />
<glyph unicode="&#x201d;" d="M128 896v128h128v128h-128v256h256v-384h-128v-128h-128zM512 896v128h128v128h-128v256h256v-384h-128v-128h-128z" />
<glyph unicode="&#x201e;" />
<glyph unicode="&#x2022;" />
<glyph unicode="&#x202f;" horiz-adv-x="332" />
<glyph unicode="&#x2039;" />
<glyph unicode="&#x203a;" />
<glyph unicode="&#x205f;" horiz-adv-x="416" />
<glyph unicode="&#x25fc;" horiz-adv-x="1025" d="M0 0v1025h1025v-1025h-1025z" />
</font>
</defs>
</svg>
